# xmcd
#
# Track frame offsets: 
#        150
#        18185
#        37456
#        57183
#        70387
#        86653
#        103636
#        120415
#        133118
#        148540
#        162275
#        174910
#        191480
#        207945
#        224230
#        243059
#        258228
#        281475
#        302832
#        326983
#
# Disc length: 4622 seconds
#
# Revision: 0
# Processed by: cddbd v1.5.2PL0 Copyright (c) Steve Scherf et al.
# Submitted via: ExactAudioCopy v1.0b3
#
DISCID=2d120c14
DTITLE=小林旭 - GOLDEN☆BEST 小林旭 ヒット全曲集 Disc 1 MHCL-1473-4
DYEAR=1900
DGENRE=Blues
TTITLE0=北へ
TTITLE1=ついて来るかい
TTITLE2=ごめんね
TTITLE3=純子 
TTITLE4=女房きどり
TTITLE5=昔の名前で出ています
TTITLE6=ギターを持った渡り鳥 
TTITLE7=アキラのダンチョネ節 
TTITLE8=アキラのズンドコ節 
TTITLE9=恋の山手線 
TTITLE10=自動車ショー歌 
TTITLE11=さすらい
TTITLE12=落日 
TTITLE13=もう一度一から出なおします  
TTITLE14=水たまり
TTITLE15=お世話になったあの人へ
TTITLE16=惚れた女が死んだ夜は
TTITLE17=腕に虹だけ
TTITLE18=熱き心に (ライブ) 
TTITLE19=旅の酒 
EXTD=
EXTT0=
EXTT1=
EXTT2=
EXTT3=
EXTT4=
EXTT5=
EXTT6=
EXTT7=
EXTT8=
EXTT9=
EXTT10=
EXTT11=
EXTT12=
EXTT13=
EXTT14=
EXTT15=
EXTT16=
EXTT17=
EXTT18=
EXTT19=
PLAYORDER=
